<?xml version="1.0" encoding="utf-8"?><svg xmlns="http://www.w3.org/2000/svg" xmlns:xlink="http://www.w3.org/1999/xlink"><symbol viewBox="0 0 380.39 511" id="bag" xmlns="http://www.w3.org/2000/svg"><path d="M380.36 469.92L366 110.88A15.47 15.47 0 00350.51 96H285.7v-.5a95.5 95.5 0 00-191 0v.5H29.88a15.47 15.47 0 00-15.49 14.88L0 469.92A39.5 39.5 0 0039.5 511h301.39a39.5 39.5 0 0039.47-41.08zM109.7 95.5a80.5 80.5 0 01161 0v.5h-161zm248.86 393a24.29 24.29 0 01-17.67 7.5H39.5A24.49 24.49 0 0115 470.52l14.36-359a.5.5 0 01.5-.48H94.7v48.5a7.5 7.5 0 0015 0V111h161v48.5a7.5 7.5 0 0015 0V111h64.81a.5.5 0 01.5.48l14.36 359a24.29 24.29 0 01-6.81 17.99z"/></symbol><symbol viewBox="0 0 32 32" id="check" xmlns="http://www.w3.org/2000/svg"><path d="M26.664 6.27a.829.829 0 00-1.177 0L13.088 18.611a.826.826 0 01-1.178 0l-5.433-5.532a.825.825 0 00-1.177 0l-2.401 2.158a.83.83 0 00-.246.583c0 .215.087.44.247.603l5.478 5.749c.324.328.855.861 1.178 1.186l2.355 2.374a.834.834 0 001.178 0L29.019 9.83a.846.846 0 000-1.188l-2.356-2.373z"/></symbol><symbol viewBox="0 0 45.437 45.437" id="empty" xmlns="http://www.w3.org/2000/svg"/><symbol viewBox="0 0 48 48" id="facebook_logo" xmlns="http://www.w3.org/2000/svg"><path d="M48 24C48 10.745 37.255 0 24 0S0 10.745 0 24c0 11.979 8.776 21.908 20.25 23.708v-16.77h-6.094V24h6.094v-5.288c0-6.014 3.583-9.337 9.065-9.337 2.625 0 5.372.469 5.372.469v5.906h-3.026c-2.981 0-3.911 1.85-3.911 3.75V24h6.656l-1.064 6.938H27.75v16.77C39.224 45.908 48 35.978 48 24z"/></symbol><symbol viewBox="0 0 485 485" id="play" xmlns="http://www.w3.org/2000/svg"><path d="M414 71A242.5 242.5 0 1071 414 242.5 242.5 0 10414 71zM242.5 455C125.33 455 30 359.67 30 242.5S125.33 30 242.5 30 455 125.33 455 242.5 359.67 455 242.5 455z"/><path d="M181.06 336.57l162.88-94.07-162.88-94.07v188.14z"/></symbol><symbol viewBox="0 0 15.22 14.47" id="star" xmlns="http://www.w3.org/2000/svg"><path d="M7.61 0L9.4 5.53h5.82l-4.71 3.41 1.8 5.53-4.7-3.41-4.7 3.41L4.7 8.94 0 5.53h5.81z"/></symbol></svg>